<svg xmlns="http://www.w3.org/2000/svg" viewBox="1075 4611 123 55">
  <defs>
    <style>
      .cls-1, .cls-2, .cls-3, .cls-5 {
        fill: none;
      }

      .cls-1, .cls-2, .cls-3 {
        stroke: #95989a;
      }

      .cls-1 {
        stroke-width: 2px;
      }

      .cls-3 {
        stroke-width: 1.5px;
      }

      .cls-4 {
        stroke: none;
      }
    </style>
  </defs>
  <g id="Group_665" data-name="Group 665" transform="translate(-79 328)">
    <g id="Group_664" data-name="Group 664" transform="translate(410 3856)">
      <g id="Rectangle_253" data-name="Rectangle 253" class="cls-1" transform="translate(751 427)">
        <rect class="cls-4" width="109" height="55" rx="17"/>
        <rect class="cls-5" x="1" y="1" width="107" height="53" rx="16"/>
      </g>
      <g id="Rectangle_365" data-name="Rectangle 365" class="cls-2" transform="translate(756 432)">
        <rect class="cls-4" width="99" height="45" rx="13"/>
        <rect class="cls-5" x="0.5" y="0.5" width="98" height="44" rx="12.5"/>
      </g>
      <g id="Ellipse_5" data-name="Ellipse 5" class="cls-3" transform="translate(775 442.029)">
        <circle class="cls-4" cx="11.486" cy="11.486" r="11.486"/>
        <circle class="cls-5" cx="11.486" cy="11.486" r="10.736"/>
      </g>
      <g id="Ellipse_6" data-name="Ellipse 6" class="cls-3" transform="translate(812.329 442.029)">
        <circle class="cls-4" cx="11.486" cy="11.486" r="11.486"/>
        <circle class="cls-5" cx="11.486" cy="11.486" r="10.736"/>
      </g>
    </g>
    <g id="Rectangle_361" data-name="Rectangle 361" class="cls-1" transform="translate(1157 4302)">
      <rect class="cls-4" width="6" height="19"/>
      <rect class="cls-5" x="1" y="1" width="4" height="17"/>
    </g>
    <g id="Rectangle_364" data-name="Rectangle 364" class="cls-1" transform="translate(1268 4302)">
      <rect class="cls-4" width="6" height="19"/>
      <rect class="cls-5" x="1" y="1" width="4" height="17"/>
    </g>
    <g id="Rectangle_362" data-name="Rectangle 362" class="cls-1" transform="translate(1154 4307)">
      <rect class="cls-4" width="5" height="9"/>
      <rect class="cls-5" x="1" y="1" width="3" height="7"/>
    </g>
    <g id="Rectangle_363" data-name="Rectangle 363" class="cls-1" transform="translate(1272 4307)">
      <rect class="cls-4" width="5" height="9"/>
      <rect class="cls-5" x="1" y="1" width="3" height="7"/>
    </g>
  </g>
</svg>
