<?xml version="1.0" encoding="UTF-8"?>
<svg width="669px" height="123px" viewBox="0 0 669 123" version="1.1" xmlns="http://www.w3.org/2000/svg" xmlns:xlink="http://www.w3.org/1999/xlink">
    <!-- Generator: Sketch 46.2 (44496) - http://www.bohemiancoding.com/sketch -->
    <title>Group</title>
    <desc>Created with Sketch.</desc>
    <defs></defs>
    <g id="Page-1" stroke="none" stroke-width="1" fill="none" fill-rule="evenodd">
        <g id="Group">
            <path d="M28.6,11.424 L28.6,96.096 L62.44,96.096 L62.44,120 L0.376,120 L0.376,11.424 L28.6,11.424 Z M100.6,46.128 L100.6,87.744 C100.6,96.8640456 105.015956,101.424 113.848,101.424 C122.680044,101.424 127.096,96.8640456 127.096,87.744 L127.096,46.128 L153.16,46.128 L153.16,92.784 C153.16,102.76805 149.872033,110.255975 143.296,115.248 C136.719967,120.240025 126.904065,122.736 113.848,122.736 C100.791935,122.736 90.9760329,120.240025 84.4,115.248 C77.8239671,110.255975 74.536,102.76805 74.536,92.784 L74.536,46.128 L100.6,46.128 Z M170.872,46.128 L196.936,46.128 L196.936,55.2 C204.040036,48.3839659 212.007956,44.976 220.84,44.976 C231.784055,44.976 240.135971,49.5839539 245.896,58.8 C251.752029,49.4879534 260.103946,44.832 270.952,44.832 C274.408017,44.832 277.671985,45.335995 280.744,46.344 C283.816015,47.352005 286.455989,48.9359892 288.664,51.096 C290.872011,53.2560108 292.623994,56.0639827 293.92,59.52 C295.216006,62.9760173 295.864,67.1519755 295.864,72.048 L295.864,120 L269.8,120 L269.8,83.568 C269.8,79.8239813 269.536003,76.752012 269.008,74.352 C268.479997,71.951988 267.712005,70.0800067 266.704,68.736 C265.695995,67.3919933 264.520007,66.4800024 263.176,66 C261.831993,65.5199976 260.392008,65.28 258.856,65.28 C250.503958,65.28 246.328,71.375939 246.328,83.568 L246.328,120 L220.264,120 L220.264,83.568 C220.264,79.8239813 220.024002,76.7280122 219.544,74.28 C219.063998,71.8319878 218.368005,69.8880072 217.456,68.448 C216.543995,67.0079928 215.368007,66.0240026 213.928,65.496 C212.487993,64.9679974 210.80801,64.704 208.888,64.704 C207.255992,64.704 205.720007,64.9439976 204.28,65.424 C202.839993,65.9040024 201.568006,66.839993 200.464,68.232 C199.359994,69.624007 198.496003,71.5439878 197.872,73.992 C197.247997,76.4400122 196.936,79.6319803 196.936,83.568 L196.936,120 L170.872,120 L170.872,46.128 Z M413.368,70.032 C408.855977,66.9599846 404.296023,65.424 399.688,65.424 C397.191988,65.424 394.864011,65.8559957 392.704,66.72 C390.543989,67.5840043 388.648008,68.8079921 387.016,70.392 C385.383992,71.9760079 384.112005,73.8479892 383.2,76.008 C382.287995,78.1680108 381.832,80.5919866 381.832,83.28 C381.832,85.872013 382.287995,88.2479892 383.2,90.408 C384.112005,92.5680108 385.359992,94.4399921 386.944,96.024 C388.528008,97.6080079 390.423989,98.8319957 392.632,99.696 C394.840011,100.560004 397.191988,100.992 399.688,100.992 C404.584024,100.992 409.143979,99.3120168 413.368,95.952 L413.368,118.128 C406.935968,120.912014 400.840029,122.304 395.08,122.304 C389.703973,122.304 384.592024,121.392009 379.744,119.568 C374.895976,117.743991 370.624018,115.128017 366.928,111.72 C363.231982,108.311983 360.280011,104.232024 358.072,99.48 C355.863989,94.7279762 354.76,89.4240293 354.76,83.568 C354.76,77.7119707 355.815989,72.3600242 357.928,67.512 C360.040011,62.6639758 362.919982,58.4880175 366.568,54.984 C370.216018,51.4799825 374.559975,48.7440098 379.6,46.776 C384.640025,44.8079902 390.039971,43.824 395.8,43.824 C402.136032,43.824 407.991973,45.1679866 413.368,47.856 L413.368,70.032 Z M428.2,0.48 L454.264,0.48 L454.264,55.488 C457.816018,51.1679784 461.415982,48.2640074 465.064,46.776 C468.712018,45.2879926 472.983976,44.544 477.88,44.544 C487.192047,44.544 494.223976,47.1119743 498.976,52.248 C503.728024,57.3840257 506.104,64.3199563 506.104,73.056 L506.104,120 L480.04,120 L480.04,82.704 C480.04,78.9599813 479.752003,75.9360115 479.176,73.632 C478.599997,71.3279885 477.640007,69.5520062 476.296,68.304 C473.991988,66.2879899 471.208016,65.28 467.944,65.28 C463.527978,65.28 460.144012,66.5999868 457.792,69.24 C455.439988,71.8800132 454.264,75.6479755 454.264,80.544 L454.264,120 L428.2,120 L428.2,0.48 Z M548.008,82.848 C548.008,85.248012 548.439996,87.4799897 549.304,89.544 C550.168004,91.6080103 551.343993,93.4079923 552.832,94.944 C554.320007,96.4800077 556.09599,97.6799957 558.16,98.544 C560.22401,99.4080043 562.455988,99.84 564.856,99.84 C567.160012,99.84 569.34399,99.4080043 571.408,98.544 C573.47201,97.6799957 575.247993,96.4800077 576.736,94.944 C578.224007,93.4079923 579.423995,91.6320101 580.336,89.616 C581.248005,87.5999899 581.704,85.4400115 581.704,83.136 C581.704,80.8319885 581.248005,78.6480103 580.336,76.584 C579.423995,74.5199897 578.224007,72.7200077 576.736,71.184 C575.247993,69.6479923 573.47201,68.4480043 571.408,67.584 C569.34399,66.7199957 567.160012,66.288 564.856,66.288 C562.455988,66.288 560.22401,66.7199957 558.16,67.584 C556.09599,68.4480043 554.320007,69.6479923 552.832,71.184 C551.343993,72.7200077 550.168004,74.4719902 549.304,76.44 C548.439996,78.4080098 548.008,80.5439885 548.008,82.848 Z M580.84,46.128 L607.048,46.128 L607.048,120 L580.84,120 L580.84,111.792 C575.271972,118.800035 567.736048,122.304 558.232,122.304 C552.855973,122.304 547.912023,121.32001 543.4,119.352 C538.887977,117.38399 534.952017,114.624018 531.592,111.072 C528.231983,107.519982 525.616009,103.344024 523.744,98.544 C521.871991,93.743976 520.936,88.5120283 520.936,82.848 C520.936,77.5679736 521.847991,72.5520238 523.672,67.8 C525.496009,63.0479762 528.039984,58.8960178 531.304,55.344 C534.568016,51.7919822 538.455977,48.9840103 542.968,46.92 C547.480023,44.8559897 552.471973,43.824 557.944,43.824 C567.160046,43.824 574.79197,47.0399678 580.84,53.472 L580.84,46.128 Z M653.848,67.872 L653.848,120 L627.784,120 L627.784,67.872 L619.144,67.872 L619.144,46.128 L627.784,46.128 L627.784,23.952 L653.848,23.952 L653.848,46.128 L668.68,46.128 L668.68,67.872 L653.848,67.872 Z" id="Lumichat" fill="#FFFFFF"></path>
            <polygon id="Path" fill="#E40000" points="339.784 46.128 339.784 120 313.72 120 313.72 46.128"></polygon>
            <path d="M311.992,17.76 C311.992,15.7439899 312.375996,13.8480089 313.144,12.072 C313.912004,10.2959911 314.967993,8.73600672 316.312,7.392 C317.656007,6.04799328 319.215991,4.99200384 320.992,4.224 C322.768009,3.45599616 324.66399,3.072 326.68,3.072 C328.69601,3.072 330.591991,3.45599616 332.368,4.224 C334.144009,4.99200384 335.703993,6.04799328 337.048,7.392 C338.392007,8.73600672 339.447996,10.2959911 340.216,12.072 C340.984004,13.8480089 341.368,15.7439899 341.368,17.76 C341.368,19.7760101 340.984004,21.6719911 340.216,23.448 C339.447996,25.2240089 338.392007,26.7839933 337.048,28.128 C335.703993,29.4720067 334.144009,30.5279962 332.368,31.296 C330.591991,32.0640038 328.69601,32.448 326.68,32.448 C324.66399,32.448 322.768009,32.0640038 320.992,31.296 C319.215991,30.5279962 317.656007,29.4720067 316.312,28.128 C314.967993,26.7839933 313.912004,25.2240089 313.144,23.448 C312.375996,21.6719911 311.992,19.7760101 311.992,17.76 Z" id="Path" fill="#E40000"></path>
        </g>
    </g>
</svg>