<svg xmlns="http://www.w3.org/2000/svg" viewBox="376 1429 23 19">
  <defs>
    <style>
      .cls-1 {
        opacity: 0.7;
      }

      .cls-2 {
        fill: #fff;
      }
    </style>
  </defs>
  <g id="multiple-users-silhouette" class="cls-1" transform="translate(376 1422.652)">
    <path id="Path_12" data-name="Path 12" class="cls-2" d="M13.88,9.609a4.1,4.1,0,0,1,1.945,3.048,3.408,3.408,0,0,0,1.425.313,3.312,3.312,0,1,0-3.37-3.361Zm-2.21,6.78A3.312,3.312,0,1,0,8.3,13.078,3.343,3.343,0,0,0,11.67,16.389Zm1.431.226H10.238a4.285,4.285,0,0,0-4.319,4.24v3.436l.009.054.241.074a20,20,0,0,0,5.872.93,12.245,12.245,0,0,0,5.128-.945l.225-.112h.024V20.854A4.284,4.284,0,0,0,13.1,16.615ZM18.681,13.2h-2.84a4.047,4.047,0,0,1-1.283,2.842,5.051,5.051,0,0,1,3.666,4.821v1.059a11.8,11.8,0,0,0,4.527-.933l.225-.112H23V17.436A4.285,4.285,0,0,0,18.681,13.2ZM5.751,12.971a3.4,3.4,0,0,0,1.794-.511A4.084,4.084,0,0,1,9.114,9.846c0-.062.009-.123.009-.186A3.343,3.343,0,0,0,5.751,6.349a3.312,3.312,0,1,0,0,6.622ZM8.78,16.039A4.05,4.05,0,0,1,7.5,13.212c-.105-.008-.21-.016-.317-.016H4.319A4.285,4.285,0,0,0,0,17.436v3.437l.009.053L.25,21a20.589,20.589,0,0,0,4.864.9V20.86A5.052,5.052,0,0,1,8.78,16.039Z"/>
  </g>
</svg>
