<svg xmlns="http://www.w3.org/2000/svg" viewBox="1042 7573 41 21">
  <defs>
    <style>
      .cls-1, .cls-2, .cls-4 {
        fill: none;
      }

      .cls-1, .cls-2 {
        stroke: #fff;
      }

      .cls-1 {
        stroke-width: 2px;
      }

      .cls-2 {
        stroke-width: 1.5px;
      }

      .cls-3 {
        stroke: none;
      }
    </style>
  </defs>
  <g id="Group_594" data-name="Group 594" transform="translate(915 6867)">
    <g id="Rectangle_253" data-name="Rectangle 253" class="cls-1" transform="translate(127 706)">
      <path class="cls-3" d="M7,0H34a7,7,0,0,1,7,7v4A10,10,0,0,1,31,21H10A10,10,0,0,1,0,11V7A7,7,0,0,1,7,0Z"/>
      <path class="cls-4" d="M7,1H34a6,6,0,0,1,6,6v4a9,9,0,0,1-9,9H10a9,9,0,0,1-9-9V7A6,6,0,0,1,7,1Z"/>
    </g>
    <g id="Ellipse_5" data-name="Ellipse 5" class="cls-2" transform="translate(137 712)">
      <circle class="cls-3" cx="4" cy="4" r="4"/>
      <circle class="cls-4" cx="4" cy="4" r="3.25"/>
    </g>
    <g id="Ellipse_6" data-name="Ellipse 6" class="cls-2" transform="translate(150 712)">
      <circle class="cls-3" cx="4" cy="4" r="4"/>
      <circle class="cls-4" cx="4" cy="4" r="3.25"/>
    </g>
  </g>
</svg>
